# xmcd CD database file
#
# Track frame offsets:
#	150
#	15110
#	31762
#	44657
#	62035
#	79957
#	96217
#	112960
#	128507
#	143417
#	159990
#	174702
#	191877
#	210040
#	225805
#	244980
#	264025
#	282470
#	296850
#
# Disc length: 4221 seconds
#
# Revision: 2
# Processed by: cddbd v1.5.2PL0 Copyright (c) Steve Scherf et al.
# Submitted via: CDex 1.51
#
DISCID=f6107b13
DTITLE=Various Artist - 70 Ounces of Gold - 90's Country Hits
DYEAR=1990
DGENRE=Country
TTITLE0=Alabama - Reckless
TTITLE1=Carlene Carter - I fell inlove
TTITLE2=Don Williams - True Love
TTITLE3=John Anderson - When it comes to you
TTITLE4=Pam Tillis - Maybe it was memphis
TTITLE5=Steve Wariner - The tips of my fingers
TTITLE6=Shenandoah - I want to be loved like that
TTITLE7=Hal ketchum - Sure love
TTITLE8=Lorrie Morgan - I don't know my own strength
TTITLE9=Diamond Rio - Love a little stronger
TTITLE10=Aarton Tippin - That's as close as I'll get to loving you
TTITLE11=K.T. Oslin - Come next monday
TTITLE12=Randy Travis - Hard Rock bottom of your heart
TTITLE13=Radney Foster - Nobody wins
TTITLE14=BlawkHawk - I'm Not Strong Enough to say no
TTITLE15=Lee Roy parnell - I'm Holding On To My Own
TTITLE16=Collin Raye - One Boy, One Girl
TTITLE17=Mindy McCready - Guys Do It all the time
TTITLE18=Restless Heart - Fast Movin' Train
EXTD=YEAR: 1990
EXTT0=
EXTT1=
EXTT2=
EXTT3=
EXTT4=
EXTT5=
EXTT6=
EXTT7=
EXTT8=
EXTT9=
EXTT10=
EXTT11=
EXTT12=
EXTT13=
EXTT14=1990's Country
EXTT15=
EXTT16=
EXTT17=
EXTT18=
PLAYORDER=
